/* XPM */
static char *_a6523a7116c4785e054aa3f085885425Ku5u0rH5bPXWhdr[] = {
/* columns rows colors chars-per-pixel */
"50 50 237 2 ",
"   c #675C0E",
".  c #6F5D0F",
"X  c #5A620D",
"o  c #6B6402",
"O  c #65630C",
"+  c #686809",
"@  c #76680C",
"#  c #6C6413",
"$  c #686619",
"%  c #766A18",
"&  c #797416",
"*  c #766D26",
"=  c #7A7425",
"-  c #6F662B",
";  c #7D6C47",
":  c #7C7541",
">  c #8D6C19",
",  c #896A18",
"<  c #946D1C",
"1  c #887518",
"2  c #98761C",
"3  c #846C0B",
"4  c #A57A18",
"5  c #8A6D25",
"6  c #926D22",
"7  c #8C742B",
"8  c #8A7728",
"9  c #947C2B",
"0  c #9D7B2A",
"q  c #987725",
"w  c #897A39",
"e  c #957B32",
"r  c #8A6C30",
"t  c #A47B25",
"y  c #A67E2C",
"u  c #A27527",
"i  c #847345",
"p  c #897047",
"a  c #798B27",
"s  c #6D9525",
"d  c #6E9923",
"f  c #6D972B",
"g  c #6E9A2C",
"h  c #729524",
"j  c #7A9324",
"k  c #729B26",
"l  c #7A9B26",
"z  c #72962B",
"x  c #759D2C",
"c  c #7B9D2D",
"v  c #7B942D",
"b  c #7A8D37",
"n  c #6E9C30",
"m  c #769633",
"M  c #7C9534",
"N  c #769D32",
"B  c #7B9D33",
"V  c #7C9D39",
"C  c #78963B",
"Z  c #6FA029",
"A  c #75A324",
"S  c #78A427",
"D  c #75A22D",
"F  c #79A12E",
"G  c #77AC2E",
"H  c #7BAB2D",
"J  c #75A232",
"K  c #7BA332",
"L  c #7DAA34",
"P  c #7BA439",
"I  c #7DAA3A",
"U  c #77AD31",
"Y  c #7CB134",
"T  c #7D9A42",
"R  c #7DA141",
"E  c #8E8C1F",
"W  c #99881B",
"Q  c #A5831E",
"!  c #AC811C",
"~  c #B4881C",
"^  c #BF991E",
"/  c #8D8C23",
"(  c #888E2C",
")  c #938524",
"_  c #958C22",
"`  c #9A8D26",
"'  c #9A822D",
"]  c #958B2B",
"[  c #998B2B",
"{  c #988328",
"}  c #859425",
"|  c #83942A",
" . c #8B952C",
".. c #839A2B",
"X. c #8B9C2C",
"o. c #8A9725",
"O. c #99932B",
"+. c #969A2C",
"@. c #979329",
"#. c #9D8D31",
"$. c #988837",
"%. c #849434",
"&. c #8C9534",
"*. c #839C33",
"=. c #8A9B34",
"-. c #85933A",
";. c #8A943E",
":. c #8C9A3A",
">. c #819D39",
",. c #959334",
"<. c #94963A",
"1. c #949B3C",
"2. c #989635",
"3. c #858E33",
"4. c #A48424",
"5. c #A18D25",
"6. c #AC8C29",
"7. c #A78929",
"8. c #B98E23",
"9. c #B68A26",
"0. c #A69323",
"q. c #AD942D",
"w. c #A3952A",
"e. c #B3912D",
"r. c #BD922D",
"t. c #B2992C",
"y. c #BC9628",
"u. c #AB8231",
"i. c #A58B3E",
"p. c #A88837",
"a. c #B48F34",
"s. c #A79637",
"d. c #BC9433",
"f. c #BE9B33",
"g. c #BC9C3B",
"h. c #B59837",
"j. c #88A42B",
"k. c #82A434",
"l. c #81A936",
"z. c #81AA37",
"x. c #82AA35",
"c. c #81A53A",
"v. c #83AB38",
"b. c #82AA3A",
"n. c #85AD3A",
"m. c #86AE3D",
"M. c #84AD3A",
"N. c #8BA037",
"B. c #97A237",
"V. c #85B13C",
"C. c #89B13B",
"Z. c #81B134",
"A. c #94B53D",
"S. c #93A22D",
"D. c #B9A23B",
"F. c #ACA034",
"G. c #C3932C",
"H. c #C69C2B",
"J. c #CA9E2C",
"K. c #C69A25",
"L. c #C49C35",
"P. c #C39B3B",
"I. c #CB9C3C",
"U. c #C79836",
"Y. c #C6A32C",
"T. c #CCA434",
"R. c #C3A33B",
"E. c #CDA33E",
"W. c #C7AA39",
"Q. c #D4AB3D",
"!. c #D5A836",
"~. c #DCB13C",
"^. c #D9B63E",
"/. c #C7B139",
"(. c #E1B43F",
"). c #9F8D41",
"_. c #889A45",
"`. c #9C8B5D",
"'. c #969449",
"]. c #A48D45",
"[. c #B38F40",
"{. c #BC8F43",
"}. c #A99448",
"|. c #BA9647",
" X c #A28A58",
".X c #85AC41",
"XX c #86A648",
"oX c #9DA04F",
"OX c #89A454",
"+X c #BEA347",
"@X c #B7A050",
"#X c #AD9D6E",
"$X c #B4A979",
"%X c #B1AA6E",
"&X c #C39C44",
"*X c #C3A440",
"=X c #C8AB45",
"-X c #D2A547",
";X c #D3AB45",
":X c #DAAE45",
">X c #D3AA4A",
",X c #D8A740",
"<X c #D5B143",
"1X c #DCB442",
"2X c #DAB24B",
"3X c #D8B84A",
"4X c #D6BA53",
"5X c #DEBD55",
"6X c #D7BE59",
"7X c #CBB44A",
"8X c #E6BC44",
"9X c #E4BB4B",
"0X c #EABC4B",
"qX c #E5B847",
"wX c #E6BB56",
"eX c #BAC67C",
"rX c #EDC449",
"tX c #E8C447",
"yX c #F5C74A",
"uX c #E6C354",
"iX c #EDC459",
"pX c #ECC759",
"aX c #F5CC5A",
"sX c #F6C852",
"dX c #F6D356",
"fX c #FAD264",
"gX c #EFD064",
"hX c #BBB88C",
"jX c #BAAB84",
"kX c #C1BE8B",
"lX c #C3BF90",
"zX c #BFCB8D",
"xX c #C9D78B",
"cX c #C7C797",
"vX c #D0DA93",
"bX c #D4E296",
"nX c #D8EBA9",
/* pixels */
"K K K K K K x x x K K z.z.K K F K D D D D K K x B c M v B V N N K x x K K K K b.z.K F K K F F F x N ",
"K K x x x x F F x F K K K K K K M.K D J D D K c k.c B B B K N N K z z x K K F K b.K K z.z.F x x x K ",
"K x x x x K K K x x x x K K K K z.x x K D D K K b.K K J J J x J K x x K K F x x K K K K K x x F F x ",
"x x x x K K K K x x x x x x F F x s h c c c K K V.K D D D D Z D J x x K K K F x K x x F x x F K K F ",
"x x K K K K K K F F K F x x x F c z z B c c F K V.D D D J U D D D F F x x F K K K F F x x z K K z.L ",
"K K b.b.b.K K F x F F x x x x F B x x B c c F k.L D D D L L F F z.z.K x z x F F x x F F x x x K m.M.",
"K M.m.b.K K K F x x F K K K F F x x B k.B c k.K K x D D F k.*.k.M.m.M.K x F F x s k x x x x x K M.M.",
"K m.m.b.K K K F x x K b.m.M.K F D K l.n.k.k.K c F D D z z c c *.k.b.b.K K z.K x k z x x x x x F K x.",
"K b.m.K K x F F x F K b.m.C.z.K D K z.z.k.F c c D J x s N P z V K K z.z.b.z.K x s x K K x z x K K K ",
"K K K K K x k s x F F K z.M.M.L D L M.K x k x x K J x s f N m K K K K K K K x x F x x K K x x K F F ",
"K z z K K x k s F x x x K z.M.M.D M.V.K d d k D x x J x n J J J K K K K K F x x x F K F x x x x K K ",
"K z z x K K z k x F x x F K K K x z.V.D d k F F c c k.K N N N g x F K K F F F K x F K K K K x x K K ",
"K x x x x N x z F F F x x F x x z K L D k x c j |  . . .| ..k.K s z K K x x F K z.K F F z.M.K x x x ",
"x K K x x K K K K K F x x x x z c F K D D c l } o.O.` ` @.o.} j h z x K x x F K M.b.K F K z.K F F F ",
"x x x K K K K M.M.z.K F F K F x K K J K F l o.+.7X4X=XR.*Xh.w./ j x K K K x K K K b.b.F x x F K F K ",
"F k h x J D K z.V.M.L K L L K F K x x K B | +.F.4XwXE.I.E.L.t.O.} c B K x x J K F K z.K x F F x x x ",
"z h s x J J F D U Y Z.K L M.z.c c c k K *. .w.gX5XE.! 4 r.Q.E.t./  .*.K x N N K x D F J K N x N K F ",
"x k h x J J F F G U C.A.F F k.k.l k.P B %./ t.fXE.r.;X;X,X8.8.e.` ,.=.*.B c B c F F F x g f x N K K ",
"c z z N J J K c k.k.X.S.S.X.o.} l x C OX<.` y.aXJ.y.2XQ.E.r.L.g.{ [ 2. .*.c *.l h l F D f x N x K K ",
"K x x N J J N c  . .@._ @._ _ E S.B OXnX;.[ 6.fX0X!.J.H.Q.iX-Xa.4.W _ E ,. . .a j h F K D D K F K K ",
"K N N K K J x ..2.` +X4X*X=X7Xh.w.<.#XhX$X= , =X8XrXrXyX8X1Xf.R.3X^././.F.s.#.,.:.M B J J J z.M.x x ",
"K K K P K K F o.` g.2XgXR.*XP.=Xd.[.#XjX#Xw 7 4.<X8XrX0X9XT.R./.pX^.Y.W.R.D.q.#.1.%.B J J L M.M.F K ",
"K K K z.z.D S j.0.iXuX;XQ Q 4.>X-X{.]. X$X Xe < a.L.I.d.r.6.3XuX2Xr.4 9.E.2XR.5.] =.j.S H Z.n.z.K K ",
"x c K z.z.H S j.0.9X9Xy.f.R.f.d.I.&Xp.].$Xp r u.y t y y t Q 9X0XL.U.I.U.U.G.y.q.] B.j.A H Z.x.K K K ",
"x c K K z.x.G o.0.iXQ.~ ^.1XQ.8.d.&Xi.].$X; * }.9 > < > 2 ! (.qX~ U.:X:XG.~ T.6.[ B.A.A H L k.c B K ",
"K x z c K D D X.5.uXaX~.Y.^ K.aXwXh.}.}.$X$X'.$ ].@X|.+Xa.9.9XsXqXT.H.H.0XfXL.e.$.oX*.H A k K c z z ",
"K x x B J N N =.1 P.:XaXtX8XyX~.-Xa.8 & :.%.%.-.= = * 7 7 , d.1XrXrXtX8X9XwX4.0 w kX_.l.K k N V x x ",
"D x N K P P B %.@ 7.5XgXfXdXsX0Xg.p.@ + +.S.=.&.#   #     @ 4.3XdXdXdXdX9X2Xt 5 i cX_.V K K B V K K ",
"D D x N P I c.*.( o 1 h.D.g.P.4., . ].s.W W [ ] [ [ ,.<.<.,.1 2 R.f.L.L.e.4.3 9 `.lXC K k D K N K x ",
"F K K K I M.l.*.N.&.& 8 9 8 e 5 w # ' g.=XR.g.g.q.q.O.,.1.& { p.y t 4 2 2 2 q 7 `.lX_.c k S K P B z ",
"K z.M.n.L H F l k c -.$ $ : i i i ).h.W.uX<X-X-X>Xf.5.) s.@ u.y < u 2 0 > , 7.5 ; lXb h A H K .XK K ",
"M.M.n.x.S A k F k K V b zXzXcXhX#X$.3XtX<Xy.! 9.I.-Xh.s.{ 9 0 u &X&X{.[.p.0 , e `.cXa B S G D K z.K ",
"C.C.n.K F K F z D K B z m T C b oX) 4XuXH.K.T.G.U.U.&Xt ' q 6 u.t u.u.y 0 0 7 8 w eXm B F S F z.M.z.",
"n.x.K K K K K K F F F z x K N >. .[ 4X5X~ ~.T.1XG.9.g.p.9 @ p.p.< < > 6 6 , $.* X _.m B x k x K M.z.",
"x.D F K K K K K K K K D x K N >.&.] 6XuXT.!.K.J.qXwX*X7.#.] 1 9 ].i.|.[.e $.% = %.>.K N N K K K z.K ",
"F x x F K x x K K z.M.K K K x B 1.& h.5XuX~.8X0X0X-X4.) & 1.<.% w w e 5 9 % & 3.%.c k.J f f x F K x ",
"x x F F K B x x x z.m.K K m.K B %.+ ) =XpXfX0XiXwXf.{ + + %.%._.$ $ * *   $ &.| c c K L J x N K K F ",
"x F F K K K K x K z.b.F K M.K B v &.o 3 D.t.=Xg.7.2 o  .:.M c.M _.vXvXbX_.%.*.*.v.z.k D D K N x K K ",
"x k z x x z z x K K F k x K x B B v ( & ] #.) #.' % $ :.B P P B T OXbXxXb M k.F K M.V.L D K N P N K ",
"K x z x x z z K F x D x x F x K K c a &.+ O O # O $ ;.M B N K J R XXT XXXXc.z k.M.L V.D k K B x x x ",
"F F F x z x K K K c x F K F c x K F *.=.=.%.-.;.;.-.M m x J D K P V B M..X.XP K V.x.K K K B x z z x ",
"F F x F K x K K F F F F F x K K M.K c c B K V V >.B m N J D D F J x k L b..XP P M.K D F K K K F z x ",
"F x F K K K F K K F D K F x K L V.x.K F F U L U K c c F K D F F D k d D K I P P K K x x B F F F F F ",
"F F K K K K K K M.z.K z.z.F x D M.V.M.K S G Y Y S F F S D D c c S k d D F K J J K N x B F c c c K F ",
"F x.z.K K K K K C.M.z.z.z.F x x L M.M.x.D G G G A S H H G D c F S S z K D K x D N z x F K k.k.k.K x ",
"F n.M.K x F K F b.M.x.K x x x K K L k.K K L D Z k c k.x.L U K K F F B P K K D D x z z x F K k.M.K F ",
"x.n.x.F F F F x K z.z.F z z N x F F c B K P J x z B k.K L M.b.l.V k.K M.K K x K F k s z B K K z.M.K ",
"C.n.L K K F x x K K K F x K x k F F F c N N N V m B V B K M.m.b.V c.k.M.K K x J F k k x K K K K m.z.",
"x.x.F D F F K K K x x K K x z z F K K c K K N N B N N K K F b.K K n.n.K K x z z x F F F x x F K z.z.",
"z.K K F D F K K K x x K K x x x K z.K F K K x x K N x K x x L D x K K F F x x x x x F F F x F F K K "
};
