/* XPM */
static char *e7b63f05f8414262e5ffe77893db2ddbjHyaQywYRJKTgGkB[] = {
/* columns rows colors chars-per-pixel */
"50 50 248 2 ",
"   c #0D1C00",
".  c #0B1C0B",
"X  c #131C02",
"o  c #1A1B0B",
"O  c #181806",
"+  c #1B0D1D",
"@  c #0E1D12",
"#  c #0E181E",
"$  c #121D14",
"%  c #191819",
"&  c #240E19",
"*  c #251519",
"=  c #341518",
"-  c #2B140E",
";  c #0D2402",
":  c #0C210D",
">  c #132302",
",  c #132B00",
"<  c #192606",
"1  c #0E2016",
"2  c #0D2118",
"3  c #122213",
"4  c #15231B",
"5  c #232217",
"6  c #2F290D",
"7  c #1D0C26",
"8  c #0E192E",
"9  c #0E1528",
"0  c #13162C",
"q  c #131A2B",
"w  c #1A1728",
"e  c #0D1733",
"r  c #141A33",
"t  c #241523",
"y  c #23132B",
"u  c #271A27",
"i  c #2C1325",
"p  c #19272A",
"a  c #2C2129",
"s  c #382829",
"d  c #26293D",
"f  c #282832",
"g  c #372A38",
"h  c #2B3539",
"j  c #47362A",
"k  c #462C36",
"l  c #552E35",
"z  c #48363A",
"x  c #55353A",
"c  c #4A2629",
"v  c #66373A",
"b  c #763C3A",
"n  c #4E1C21",
"m  c #40401C",
"M  c #474336",
"N  c #554736",
"B  c #645832",
"V  c #232B44",
"C  c #2C2C47",
"Z  c #36364A",
"A  c #343A54",
"S  c #3C3C54",
"D  c #343C5B",
"F  c #3B3E5C",
"G  c #303753",
"H  c #2C3650",
"J  c #3A3E61",
"K  c #353E61",
"L  c #1F2B45",
"P  c #463948",
"I  c #543A44",
"U  c #433E54",
"Y  c #443D59",
"T  c #543E55",
"R  c #683B44",
"E  c #673E52",
"W  c #3C415C",
"Q  c #38405B",
"!  c #38404D",
"~  c #3B4263",
"^  c #374262",
"/  c #35566E",
"(  c #37607E",
")  c #464459",
"_  c #574758",
"`  c #54444E",
"'  c #684748",
"]  c #654957",
"[  c #67535A",
"{  c #79505A",
"}  c #766E5B",
"|  c #5C4A61",
" . c #5E5664",
".. c #4C4C68",
"X. c #795865",
"o. c #685C6B",
"O. c #5C6479",
"+. c #6A6268",
"@. c #7A6769",
"#. c #67667A",
"$. c #7A6F6D",
"%. c #894D57",
"&. c #8B525C",
"*. c #86555D",
"=. c #94545C",
"-. c #914B53",
";. c #8A625B",
":. c #AF6B5A",
">. c #975A63",
",. c #87686A",
"<. c #89746A",
"1. c #94746B",
"2. c #856A72",
"3. c #8A7777",
"4. c #957675",
"5. c #9B6B6C",
"6. c #A86B69",
"7. c #B46C66",
"8. c #A9726B",
"9. c #B67469",
"0. c #A87573",
"q. c #B67374",
"w. c #A26F73",
"e. c #A25C5F",
"r. c #C8776A",
"t. c #6E9A1E",
"y. c #739C1F",
"u. c #6D9B23",
"i. c #6D9B2C",
"p. c #6C9526",
"a. c #749C24",
"s. c #7A9B25",
"d. c #72952C",
"f. c #759D2C",
"g. c #7A9E2C",
"h. c #769728",
"j. c #759D32",
"k. c #799E33",
"l. c #759C3A",
"z. c #7A9D3A",
"x. c #769536",
"c. c #6D9031",
"v. c #75A124",
"b. c #79A126",
"n. c #75A12C",
"m. c #7AA22D",
"M. c #7CAA2D",
"N. c #75A828",
"B. c #76A333",
"V. c #7BA333",
"C. c #7DA933",
"Z. c #7CA33A",
"A. c #7DA93B",
"S. c #74A33A",
"D. c #6FA228",
"F. c #758C43",
"G. c #76984C",
"H. c #7B9B4B",
"J. c #789747",
"K. c #7B9B53",
"L. c #7B9658",
"P. c #718F51",
"I. c #7CA342",
"U. c #7AA746",
"Y. c #7DA254",
"T. c #7E9666",
"R. c #7D8D6B",
"E. c #829C39",
"W. c #809D2C",
"Q. c #82A62D",
"!. c #82A433",
"~. c #82AB34",
"^. c #82A53C",
"/. c #83AC3C",
"(. c #89AC38",
"). c #85B237",
"_. c #90B33B",
"`. c #829949",
"'. c #848E59",
"]. c #849A56",
"[. c #85A647",
"{. c #89B344",
"}. c #83A253",
"|. c #87A559",
" X c #94B453",
".X c #829868",
"XX c #928F77",
"oX c #B4897A",
"OX c #B48773",
"+X c #8DA569",
"@X c #C68975",
"#X c #CC8F73",
"$X c #E1957E",
"%X c #356480",
"&X c #587283",
"*X c #6B7889",
"=X c #8E7983",
"-X c #A87382",
";X c #6898AC",
":X c #689DB3",
">X c #5C9AB3",
",X c #B79489",
"<X c #A6909A",
"1X c #B69597",
"2X c #B09189",
"3X c #B49CA4",
"4X c #BBABAF",
"5X c #9491A0",
"6X c #CE978E",
"7X c #C9A698",
"8X c #D3A28D",
"9X c #E8A796",
"0X c #FDBE9A",
"qX c #F6BC9A",
"wX c #EEAF8D",
"eX c #C8A8A4",
"rX c #CEBABC",
"tX c #D5B4AE",
"yX c #EDBCAB",
"uX c #FCBEA4",
"iX c #F5BBA7",
"pX c #EABEB2",
"aX c #F6B4AC",
"sX c #FCC39B",
"dX c #EBC3A9",
"fX c #FCC3A4",
"gX c #F4C4AB",
"hX c #FBC3AC",
"jX c #F7C8A9",
"kX c #EBC7B8",
"lX c #F4C4B3",
"zX c #FCC4B3",
"xX c #F6C8BA",
"cX c #FFD2BF",
"vX c #DECBBD",
"bX c #B0CEDB",
"nX c #A8D3E3",
"mX c #D1C7D3",
"MX c #E7C6C4",
"NX c #F2CAC5",
"BX c #F5D9D9",
"VX c #EDD3D6",
"CX c #D9DEE8",
"ZX c #E7DDE6",
"AX c #F1D8E7",
"SX c #D9E5EC",
"DX c #D1E8F1",
"FX c #E5E2E8",
/* pixels */
"V.B.b.b.m.g.k.j.k.V.a.).~.A.b.b.!.g.k.k.V.k.g.g.Q.g.f.d.j.B.k.k.Z.j.M.b.f./.m.(.M.b.B.Z.A.V.m.m.f.j.",
"V.B.n.b.g.g.k.k.d.f.~.b.m./.C.^.[.`.K.K.K.K.`.`.`.H.J.G.G.H.H.J.J.c.u.b.m.B.Z.f.~.C.Z.^.^.B.f.f.f.B.",
"z.k.f.a.f.k.Z.Z.k.g.b.a.m.V.k.H.> $ @ 1 1 1 @ @ 3 3 1 1 1 3 3 ; , J.f.M.b.m.j.V.A.V.V.A.V.n.f.B.B.g.",
"l.j.f.a.m.V.Z.Z.f.g.t.b.B.[.J.L.$ 0 9 0 8 8 8 8 e e e e r 0 q # : L.x.V.f.B.k.j.V.j.n.n.a.a.m.A.B.m.",
"j.j.m.b.V.Z.I.Z.g.V.m.f.z.J.P.R.f d d V V V V V L V V V d d d d p .XK.z.k.Z.Z.Z.Z.B.n.n.a.a.m.A.~.C.",
"k.A.~.M.~.A.Z.z.A.k.j.[.G.; > 4 ! S S S F W Q Q Q Q F F F S F W Z @ ; H.J.x.l.k.j.j.n.n.a.a.f.V./.(.",
"V.~.).~.M.V.V.k.f.j.}.L.T.: 4 q W ~ ~ W J ~ ^ ^ K J F F F F F F H # . .XT.G.[.j.p.a.f.n.f.f.f.m.(.(.",
"V.~.).M.b.n.B.B.k.z..X  $ h C G K ^ ^ J F J J J J J F F J J ^ J D Z h 4 ; , J.m.a.a.f.f.f.f.f.b.V.~.",
"m.~.~.M.n.f.m.f.g.J.; 4 9 A F F K ^ ^ ~ W F F F F W F ~ D ^ D ^ F F Q h # < J.g.u.a.n.V.j.d.f.V.V.V.",
"V.B.V.V.n.f.a.u.B.J.. q 9 A F W ~ ~ D D D F W W W ) D W ~ D ~ F ) F F V 9 . J.f.b.b.n.B.k.k.j.B.B.m.",
"Z.j.d.B.Z.f.a.t.g.J.@ r e A F W S W F ~ W W S S S W A D ^ G W S F Y J C r 4 ].Z.f.b.b.n.j.j.j.j.k.B.",
"k.j.j.k.Z.B.f.a.s.J.@ r e A S S ) P S F D W S ) U F W ~ D W S U S Y ..C 9 @ L.d.f.m.m.m.B.V.k.j.k.B.",
"k.j.k.k.l.k.f.f.g.H.@ r 0 A S ) I ` ) S ~ ~ S S U S ^ ~ D S ` I _ Z S C 0 $ }.^.^.A.n.n.~./.Z.f.f.f.",
"g.m.B.j.k.k.V.A.!.}.@ q q Z W _ tXtX<X) D ~ ) U ) W D G W ` rXrX<X) U C 0 . J.Z.[.^.V.n.V./.A.m.m.m.",
"b.a.a.g.V.Z.A./.(.}.. q q Z F | pXlX3XU F F S S Z F ~ ^ ) P kXkX4XU S C w : J.V.Z.^.^.B.f.f.b.b.m.V.",
"b.t.a.f.B.k.Z.^./.}.. q q Z F | yXhXeX] o. .[ [ [ _  . .[ ' xXlX4XP ) C 9 3 H.g.B.Z.A.V.f.m.b.f.f.g.",
"f.f.p.j.n.B.k.Z.~.|.2 e r G W _ pXfXzXyXlXxXlXhXjXgXxXpXhXhXhXlXeXZ ) V r : H.b.m.n.A.j.n.f.z.k.B.m.",
"j.i.d.Z.B.n.z.z.j.}.4 9 q A S  .kXlXhXhXzXgXqXfX0XfXfXhXuXfXiXkX3XU U Z 9 3 K.z.d.f.B.f.v.u.d.k.k.B.",
"j.i.d.f.u.f.[.J.|.'.N j ` P U _ 3XeX7X7X7XtXgXfXfXfXjX8X7XeXeXeX<XP P P I x m '.F.|.j.u.u.u.j.k.Z.B.",
"V.d.f.g.C.Z.c.,   6 oXxXMX] P U z s s s s 1.lXfXzXyXkX' s s a g g _ Z =XNXkX<.O > F.l.C.N.n.V.V.B.B.",
"Q.g.g.g.B.I.K., o - ,XyXMX[ ) Z g a g s s 1.zXuXhXlXxX' a g g g C S P =XzXzX,.o < L.j.D.B.C./.A.f.f.",
"Q.s.s.!.Z.I.L.; % & oXxXNX] Z ) @.3.[ u a 4.hXfXhXlXpX' f f 2.@.+.Z ) 4.zXzX@.% X L.l.B.B.B.(.{.B.B.",
"s.m.Q._.C.S.L.< # u 2XkXMX[ )  .pXkX<X* * 1.fX0XfXlXlXx t + kXxX4Xz ` XXyXlX3.$ < L.S.n.).).(.V.V.B.",
"g.!.s.!.V.U.Y.; > O 2XMXMX[ ` ' gXgX1X* * ,.fX0XuXlXxXx + t lXgX7Xx z 4.NXkX} > > }.[.n.M.~.(.m.V.B.",
"j.V.l.z.C.).Z.^. XH.} 2.2.X.*.;.qXgX1X& i X.6X$X6X8X7Xl y t dXhX9X=.{ 2.,.<.B `.[.[.^.B.C.).g.Z.k.B.",
"j.Z.z.k.u.a.m.g.a.H.o t & ,.0.9.fXgX2X& & R 9.7.7.8.0.n & & cXuXaX6.-X] i o `.g.s.~.{.A.f.a.d.k.d.f.",
"B.i.f.A.b.n.^.k.f.H.$ w * 1.0.9.hXgX,X= = ' 9.:.7.9.8.l - = yXhX9Xq.-X_ w   `.g.m.V.Z.n.v.v.V.k.f.g.",
"B.f.f.m.v.b.k.Z.p.G.4 0 + s c v OX@X6XoX,X6X9XwX9X9X8X@X,X,X6X@X7.n c g w : J.k.V.B.Z.V.v.y.f.d.Z.V.",
"B.Z.Z.V.M.).B.Z.l.L.. r w w u = 6.:.#XhXjXfX0XsX0XfXsXfXhXhX:.9.*.= a + % < P.I.^.k.V.f.b.m.k.Z.B.f.",
"j.j.g.!.~.~.k.I.K..X5 * u y w g 5.7.@XiXiXjXsX0X0X0XqXuXuXiX7.6.X.u w a * o T.L.F.[.k.f.f.V.f.Z.k.f.",
"/.(._.(.M.f.}.L.  O XXtXeXrXmX4X' v b 6.e.6.9.r.r.r.9.e.e.=.v I @.mXmXrXtX7X} X < c.d.m.b.M.V./.A.B.",
"C.).~.b.~.l.L.< % * oXdXkXBXZXmXx x R %.%.e.q.7.7.9.q.=.-.&.l x +.ZXZXVXlXzX,.* O '.c.j.n.n.C.m.~.V.",
").).~.V.J.K..Xo - - OXlXkXBXZXmXI x R &.&.>.0.8.8.8.0.=.%.&.x z +.FXZXVXzXzX5.- - R.P.H.Z.B.b.~.(.~.",
"(.M.M.A.G.; o <.kXlX6X6.1.c + y P x R %.=.6XVXBXBXBXNXw.&.%.l z s u 7 E 8.9.6XxXvXN > ; J.f.m.b.(.~.",
"^.k.m.Z.H.> o 4.lXiX@X:.0.= u t k x R %.&.1XZXFXZXAXBX5.&.&.l I P + t R 9.:.8XgXdXj o > J.k.A.~.~.B.",
"E.E.h.V.K.X * 1.lXsX$X@X2Xc * t I v R %.&.1XZXSXFXZXBX5.%.%.R I k 7 i ' OX@XwXsXdXN * o J.d.f.m.B.f.",
"x.E.m.Z.L.X * 4.fXsXsXqXMXI + a X.%.%.%.%.3XFXSXSXCXBX4.%.=.&.{ ] t + ,.lXhXsXjXkXN & % ].k.m.b.m.m.",
"k.h.b.Z.G.> o <.lXqXfXxXMXk w u { *.&.*.X.3XSXDXDXCXFX3.*.%.&.{ T y t @.kXgXdXjXkXN * 5 `.k.t.t.m.B.",
"!.h.p.j.G., o $.1X1X,X1X<Xg q r _ ] ] o.o.5XbXnXnXnXbX*Xo.X.E | T w w _ 1X,X,X2X2XM 5 > H.f.N.N.n.B.",
"m.f.f.j.J.P.R.< o - & * % w q q y y g o.#.*X;X>X;X;X;X&X#.#.7 y 7 7 0 w o O O O X XX+XL.J.A.u.D.f.f.",
"M.n.B.B.i.l.J., > > X O $ % 9 q t t g O.O.*X:X>X:X;X:X&XO.#.7 y 7 w q # <   X , ; +X|.x.[.j.D.n.f.f.",
"n.n.u.V.V.j.^.x.Y.G..XT.R.4 # u ` ' ] $.*XO./ %X( / / #.=X2.' ] _ w p : .X+XL.K.Y.U.j.f.f.j.A.j.f.f.",
"B.Z.d.Z.z.k.f./.B.B.I.G..X  % s w.8.q.0.4.T r e e r u @.5.6.q.w.X.% < T.H.[.J.U.U.i.m.m.m.B.Z.z.B.m.",
"f.Z.Z.^.k.^.m.a.).M.B.{.}., X 6 8.6.q.6.0.' O $ % o - ;.0.8.8.0.@.< > J.[.h.Z.f.i.i.f.a.Q.V.d.z.Z.m.",
"b.b.~.(.g.!.!.C.C.).C.A.I.z.`.'.j k k k j 6 K.U.l.H..XM k x k j 6 '.H.Z.h.!.g.m.V.i.d.g.m.m.!.Z.B.f.",
"~.~.~.s.m.s.f.B.{.C.A.^.j.f.g.`.X % % 5 X ].f.v.v.j.|.  % * % o < `.l.A.!.g.s.g.f.p.d.!.m.g.(.(.A.m.",
"~.{.~.a.V.m.b.n.m.A.^.j.i.k.j.x., > ; > > ].^.f.p.z.K., >   <   ; H.l.{.(.E.g.k.B.j.p.d.f.B.V.m.(.V.",
"~.).C.V.B.f.b.m.m./.Z.k.j.B.f.l.K.L.L.P.].J.z.k.k.E.J.J.|.].+X|.H.I.A./.!.g.g.k.V.i.f.B.j.f.n.C.).~.",
"~.C.B.f.f.m.B.V.V.g.j.B.B.f.f.f.z.I.Z.z.z.z.k.j.k.k.k.Z.z.z.[.[.Z.^./.V.B.g.f.f.j.B.B.B.g.f.m.m.~.~.",
"~.V.B.f.f.m.B.B.B.f.f.B.B.f.f.f.B.~.!.m.B.B.f.f.V.j.f.B.f.f.C.m.f.V.V.m.n.f.f.n.f.f.m.m.m.f.m.m.V.B."
};
